<svg width="173" height="164" viewBox="0 0 173 164" fill="none" xmlns="http://www.w3.org/2000/svg">
<g id="greenchar">
<g id="Vector 2">
<path d="M155.5 66.4999C155.5 77.4999 144 71.9999 144 71.9999V119C144 119 148 115 149.5 119C151 123 159 121.5 155.5 105C152 88.4999 157 99.9999 163 88.4999C169 77 155.5 55.5 155.5 66.4999Z" fill="#171313"/>
<path d="M17.5 71.9999C28.5 71.9999 28.5 76.9999 28.5 76.9999L30.5 121.5C30.5 121.5 28.5 119 23.5 123C18.5 127 15 115 15 115C15 115 22 75.4999 7.50002 88.4999C-6.99998 101.5 6.50002 71.9999 17.5 71.9999Z" fill="#171313"/>
<path d="M155.5 66.4999C155.5 77.4999 144 71.9999 144 71.9999V119C144 119 148 115 149.5 119C151 123 159 121.5 155.5 105C152 88.4999 157 99.9999 163 88.4999C169 77 155.5 55.5 155.5 66.4999Z" stroke="#A68383"/>
<path d="M17.5 71.9999C28.5 71.9999 28.5 76.9999 28.5 76.9999L30.5 121.5C30.5 121.5 28.5 119 23.5 123C18.5 127 15 115 15 115C15 115 22 75.4999 7.50002 88.4999C-6.99998 101.5 6.50002 71.9999 17.5 71.9999Z" stroke="#A68383"/>
</g>
<path id="Ellipse 1" d="M150.5 92.5C150.5 126.189 109.5 163.5 88.5 152C69.5 163 23.5 131.689 23.5 98C29.5 65 53.4299 21 88.5 21C123.57 21 140 57 150.5 92.5Z" fill="#45E255"/>
<g id="Vector 1">
<path d="M27 31C27 31 55 28.5 55 17.5C55 6.5 88.5 1.5 88.5 1.5C88.5 1.5 129 4 126.5 17.5C124 31 126.5 42 153 31C164.847 26.0823 169.699 20.665 171.487 17.1605C171.316 11.4724 173.657 12.9086 171.487 17.1605C171.49 17.271 171.495 17.3841 171.5 17.5C172 28.5 148.5 54 148.5 54C148.5 54 119 69.5 97.5 54C75.9999 38.5 70.5 38 61 58.5C51.4999 79 39 72 27 54C15 36 27 31 27 31Z" fill="black"/>
<path d="M27 31C27 31 55 28.5 55 17.5C55 6.5 88.5 1.5 88.5 1.5C88.5 1.5 129 4 126.5 17.5C124 31 126.5 42 153 31C179.5 20 171 6.5 171.5 17.5C172 28.5 148.5 54 148.5 54C148.5 54 119 69.5 97.5 54C75.9999 38.5 70.5 38 61 58.5C51.4999 79 39 72 27 54C15 36 27 31 27 31Z" stroke="black"/>
</g>
<ellipse id="Ellipse 2" cx="66" cy="84" rx="9" ry="13" fill="black"/>
<ellipse id="Ellipse 3" cx="106" cy="84" rx="9" ry="13" fill="black"/>
<ellipse id="Ellipse 4" cx="70" cy="85.5" rx="4" ry="5.5" fill="white"/>
<ellipse id="Ellipse 5" cx="110" cy="85.5" rx="4" ry="5.5" fill="white"/>
<path id="Ellipse 6" d="M75 157C75 160.866 66.4934 164 56 164C45.5066 164 37 160.866 37 157C37 153.134 48 158 56 152C64 146 75 153.134 75 157Z" fill="#252424"/>
<path id="Ellipse 7" d="M139 157C139 160.866 130.493 164 120 164C109.507 164 101 160.866 101 157C101 153.134 111.5 143 120 153.5C130.5 157 139 153.134 139 157Z" fill="#1A1919"/>
<path id="Ellipse 8" d="M114 124.5C114 127.538 102.359 130 88 130C73.6406 130 62 127.538 62 124.5C62 121.462 73.6406 119 88 119C102.359 119 114 121.462 114 124.5Z" fill="white"/>
</g>
</svg>
