<svg width="173" height="164" viewBox="0 0 173 164" fill="none" xmlns="http://www.w3.org/2000/svg">
<g id="greencharsmile">
<g id="Vector 2">
<path d="M155.321 65.9999C155.321 76.9999 143.821 71.4999 143.821 71.4999V118.5C143.821 118.5 147.821 114.5 149.321 118.5C150.821 122.5 158.821 121 155.321 104.5C151.821 87.9999 156.821 99.4999 162.821 87.9999C168.821 76.5 155.321 55 155.321 65.9999Z" fill="#171313"/>
<path d="M17.3214 71.4999C28.3214 71.4999 28.3214 76.4999 28.3214 76.4999L30.3214 121C30.3214 121 28.3214 118.5 23.3214 122.5C18.3214 126.5 14.8214 114.5 14.8214 114.5C14.8214 114.5 21.8214 74.9999 7.32143 87.9999C-7.17857 101 6.32143 71.4999 17.3214 71.4999Z" fill="#171313"/>
<path d="M155.321 65.9999C155.321 76.9999 143.821 71.4999 143.821 71.4999V118.5C143.821 118.5 147.821 114.5 149.321 118.5C150.821 122.5 158.821 121 155.321 104.5C151.821 87.9999 156.821 99.4999 162.821 87.9999C168.821 76.5 155.321 55 155.321 65.9999Z" stroke="#A68383"/>
<path d="M17.3214 71.4999C28.3214 71.4999 28.3214 76.4999 28.3214 76.4999L30.3214 121C30.3214 121 28.3214 118.5 23.3214 122.5C18.3214 126.5 14.8214 114.5 14.8214 114.5C14.8214 114.5 21.8214 74.9999 7.32143 87.9999C-7.17857 101 6.32143 71.4999 17.3214 71.4999Z" stroke="#A68383"/>
</g>
<path id="Ellipse 1" d="M150.321 92C150.321 125.689 109.321 163 88.3214 151.5C69.3214 162.5 23.3214 131.189 23.3214 97.5C29.3214 64.5 53.2513 20.5 88.3214 20.5C123.391 20.5 139.821 56.5 150.321 92Z" fill="#45E255"/>
<g id="Vector 1">
<path d="M26.8214 30.5C26.8214 30.5 54.8214 28 54.8214 17C54.8214 6 88.3214 1 88.3214 1C88.3214 1 128.821 3.5 126.321 17C123.821 30.5 126.321 41.5 152.821 30.5C164.669 25.5823 169.52 20.165 171.309 16.6605C171.138 10.9724 173.478 12.4086 171.309 16.6605C171.312 16.771 171.316 16.8841 171.321 17C171.821 28 148.321 53.5 148.321 53.5C148.321 53.5 118.821 69 97.3214 53.5C75.8213 38 70.3214 37.5 60.8214 58C51.3214 78.5 38.8214 71.5 26.8214 53.5C14.8214 35.5 26.8214 30.5 26.8214 30.5Z" fill="black"/>
<path d="M26.8214 30.5C26.8214 30.5 54.8214 28 54.8214 17C54.8214 6 88.3214 1 88.3214 1C88.3214 1 128.821 3.5 126.321 17C123.821 30.5 126.321 41.5 152.821 30.5C179.321 19.5 170.821 6 171.321 17C171.821 28 148.321 53.5 148.321 53.5C148.321 53.5 118.821 69 97.3214 53.5C75.8213 38 70.3214 37.5 60.8214 58C51.3214 78.5 38.8214 71.5 26.8214 53.5C14.8214 35.5 26.8214 30.5 26.8214 30.5Z" stroke="black"/>
</g>
<ellipse id="Ellipse 2" cx="65.8214" cy="83.5" rx="9" ry="13" fill="black"/>
<ellipse id="Ellipse 3" cx="105.821" cy="83.5" rx="9" ry="13" fill="black"/>
<ellipse id="Ellipse 4" cx="66" cy="90.5" rx="4" ry="5.5" fill="white"/>
<path id="Ellipse 5" d="M109.821 90.5C109.821 93.5376 108.031 96 105.821 96C103.612 96 101.821 93.5376 101.821 90.5C101.821 87.4624 103.612 85 105.821 85C108.031 85 109.821 87.4624 109.821 90.5Z" fill="white"/>
<path id="Ellipse 6" d="M74.8214 156.5C74.8214 160.366 66.3148 163.5 55.8214 163.5C45.328 163.5 36.8214 160.366 36.8214 156.5C36.8214 152.634 47.8214 157.5 55.8214 151.5C63.8214 145.5 74.8214 152.634 74.8214 156.5Z" fill="#252424"/>
<path id="Ellipse 7" d="M138.821 156.5C138.821 160.366 130.315 163.5 119.821 163.5C109.328 163.5 100.821 160.366 100.821 156.5C100.821 152.634 111.321 142.5 119.821 153C130.321 156.5 138.821 152.634 138.821 156.5Z" fill="#1A1919"/>
<path id="Ellipse 8" d="M116.321 124.46C114.275 126.314 105.821 128.5 90.3214 129.46C75.962 129.46 70.3214 127 64.3214 124.46C28.8214 96 71.3214 126 90.3214 124.46C124.321 120.5 145.529 98 116.321 124.46Z" fill="white"/>
</g>
</svg>
